<svg width="178" height="179" viewBox="0 0 178 179" fill="none" xmlns="http://www.w3.org/2000/svg">
<ellipse cx="89.2421" cy="90.7371" rx="33.2421" ry="33.7371" fill="#4FCC9B"/>
<path d="M69.2499 91.2726C70.4405 99.7913 58.2088 100.123 58.0373 100.644C57.8658 101.165 57.2955 103.856 59.3565 102.384C63.707 100.273 70.3166 101.161 70.8329 93.013C71.3492 84.8649 66.3478 67.4277 77.0445 62.0873C87.7411 56.747 83.7604 57.5355 83.7604 57.5355C83.7604 57.5355 79.2753 58.8166 77.0445 59.9375C74.8136 61.0584 73.9988 61.0163 70.0648 64.4893C66.1307 67.9623 68.0593 82.7539 69.2499 91.2726Z" fill="#E2E2E2"/>
<path d="M97.8271 108.75C88.029 111.318 93.0863 120.472 95.0789 122.277C97.0716 124.083 94.6331 125.017 92.9943 122.143C90.9173 117.371 86.3373 112.089 95.6269 108.412C104.916 104.736 119.788 98.9578 119.67 87.9418C119.551 76.9257 120.796 78.256 120.665 78.4204C120.533 78.5847 121.186 83.1921 121.53 84.8141C121.874 86.4362 121.936 90.765 120.651 94.5389C119.365 98.3128 107.625 106.181 97.8271 108.75Z" fill="#E2E2E2"/>
<ellipse cx="88.4105" cy="90.1631" rx="33.2421" ry="33.7371" fill="url(#paint0_radial)"/>
<path d="M68.4183 90.6986C69.6089 99.2173 57.3772 99.5493 57.2057 100.07C57.0342 100.591 56.4639 103.282 58.5248 101.81C62.8754 99.6986 69.485 100.587 70.0013 92.439C70.5176 84.2909 65.5162 66.8537 76.2129 61.5134C86.9095 56.173 82.9288 56.9615 82.9288 56.9615C82.9288 56.9615 78.4437 58.2426 76.2129 59.3635C73.982 60.4844 73.1672 60.4423 69.2332 63.9153C65.2991 67.3884 67.2277 82.1799 68.4183 90.6986Z" fill="#EFF1EE" stroke="#EFF1EE"/>
<path d="M96.9955 108.176C87.1974 110.744 92.2547 119.898 94.2473 121.703C96.24 123.509 93.8015 124.443 92.1627 121.569C90.0857 116.797 85.5057 111.515 94.7953 107.838C104.085 104.162 118.956 98.3839 118.838 87.3678C118.72 76.3517 119.965 77.682 119.833 77.8464C119.702 78.0108 120.355 82.6181 120.699 84.2402C121.043 85.8622 121.104 90.191 119.819 93.9649C118.534 97.7388 106.794 105.607 96.9955 108.176Z" fill="#EFF1EE" stroke="#EFF1EE"/>
<path d="M72.9999 55.9243L55.5614 73C55.5614 73 43.0482 67.004 55.5614 55.9243C68.0745 44.8446 72.9999 55.9243 72.9999 55.9243Z" fill="#64B796" stroke="#64B796"/>
<path d="M93.9339 55H83.0232C83.0232 55 82.3193 50 88.6546 50C94.9898 50 93.9339 55 93.9339 55Z" fill="#64B796" stroke="#64B796"/>
<path d="M73 54.9243L55.5614 72C55.5614 72 43.0482 66.004 55.5614 54.9243C68.0746 43.8446 73 54.9243 73 54.9243Z" fill="url(#paint1_radial)" stroke="#4FCC9B"/>
<path d="M105 55.9243L122.439 73C122.439 73 134.952 67.004 122.439 55.9243C109.925 44.8446 105 55.9243 105 55.9243Z" fill="#64B796" stroke="#64B796"/>
<path d="M105 54.9243L122.439 72C122.439 72 134.952 66.004 122.439 54.9243C109.925 43.8446 105 54.9243 105 54.9243Z" fill="url(#paint2_radial)" stroke="#4FCC9B"/>
<path d="M93.934 54H83.0233C83.0233 54 82.3194 49 88.6546 49C94.9899 49 93.934 54 93.934 54Z" fill="url(#paint3_linear)" stroke="#4FCC9B"/>
<rect width="10.3137" height="5.98881" rx="2.99441" transform="matrix(-0.683435 0.730011 -0.719844 -0.694136 75.3597 123.157)" fill="#64B796"/>
<rect width="9.57233" height="5.55833" rx="2.77916" transform="matrix(-0.683435 0.730011 -0.719844 -0.694136 75.3597 123.157)" fill="#4FCC9B"/>
<rect width="10.3137" height="5.98881" rx="2.99441" transform="matrix(0.683435 0.730011 0.719844 -0.694136 105 122.157)" fill="#64B796"/>
<rect width="9.57233" height="5.55833" rx="2.77916" transform="matrix(0.683435 0.730011 0.719844 -0.694136 105 122.157)" fill="#4FCC9B"/>
<ellipse cx="78.9999" cy="82.5" rx="3" ry="2.5" fill="black"/>
<ellipse cx="97.9999" cy="82.5" rx="3" ry="2.5" fill="black"/>
<ellipse cx="89.4999" cy="108" rx="3.5" ry="3" fill="black"/>
<path d="M130.583 64.1372C130.613 64.6244 130.61 65.1131 130.577 65.5996L130.57 67.088L130.354 68.9048L129.639 70.8322C128.471 72.4292 126.82 74.3258 124.533 75.209C127.973 73.4628 130.304 69.603 130.577 65.5996L130.583 64.1372Z" fill="#6C63FF"/>
<path d="M130.583 64.1372C130.854 68.6337 128.391 73.2506 124.533 75.209C126.82 74.3258 128.471 72.4292 129.639 70.8322L130.354 68.9048L130.57 67.088L130.583 64.1372Z" stroke="#6C63FF" stroke-width="0.5" stroke-linecap="round" stroke-linejoin="round"/>
<path d="M132.795 66.8818C132.9 67.2943 132.979 67.712 133.034 68.1317L133.276 69.4037L133.407 70.9825L133.16 72.7179C132.498 74.2278 131.502 76.0538 129.831 77.0939C132.274 75.1728 133.484 71.585 133.034 68.1317L132.795 66.8818Z" fill="#6C63FF"/>
<path d="M132.795 66.8818C133.759 70.6884 132.571 74.9393 129.831 77.0939C131.502 76.0538 132.498 74.2278 133.16 72.7179L133.407 70.9825L133.276 69.4037L132.795 66.8818Z" stroke="#6C63FF" stroke-width="0.5" stroke-linecap="round" stroke-linejoin="round"/>
<path d="M53.644 75.6296C53.1979 75.4317 52.7652 75.2046 52.3484 74.9515L51.0297 74.2613L49.5158 73.2338L48.1326 71.7132C47.2514 69.9416 46.3258 67.604 46.5932 65.1662C46.5624 69.0242 48.9185 72.8687 52.3484 74.9515L53.644 75.6296Z" fill="#6C63FF"/>
<path d="M53.644 75.6296C49.5264 73.803 46.5587 69.493 46.5932 65.1662C46.3258 67.604 47.2514 69.9416 48.1326 71.7132L49.5158 73.2338L51.0297 74.2613L53.644 75.6296Z" stroke="#6C63FF" stroke-width="0.5" stroke-linecap="round" stroke-linejoin="round"/>
<path d="M49.0507 77.241C48.6782 77.0353 48.3192 76.8076 47.9754 76.5607L46.8811 75.8683L45.6395 74.8844L44.5415 73.5181C43.8921 72.0026 43.2398 70.0277 43.6229 68.097C43.3552 71.1934 45.1472 74.5287 47.9754 76.5607L49.0507 77.241Z" fill="#6C63FF"/>
<path d="M49.0507 77.241C45.6131 75.3429 43.3226 71.5697 43.6229 68.097C43.2398 70.0277 43.8921 72.0026 44.5415 73.5181L45.6395 74.8844L46.8811 75.8683L49.0507 77.241Z" stroke="#6C63FF" stroke-width="0.5" stroke-linecap="round" stroke-linejoin="round"/>
<path d="M64.1286 47.3989C64.6147 47.3551 65.1032 47.3434 65.5905 47.362L67.0785 47.3245L68.9009 47.4869L70.8487 48.1439C72.4797 49.2641 74.4246 50.8574 75.3753 53.118C73.5276 49.7312 69.6003 47.5158 65.5905 47.362L64.1286 47.3989Z" fill="#6C63FF"/>
<path d="M64.1286 47.3989C68.615 46.9947 73.3031 49.3196 75.3753 53.118C74.4246 50.8574 72.4797 49.2641 70.8487 48.1439L68.9009 47.4869L67.0785 47.3245L64.1286 47.3989Z" stroke="#6C63FF" stroke-width="0.5" stroke-linecap="round" stroke-linejoin="round"/>
<path d="M67.3602 43.7584C67.7857 43.7572 68.2101 43.7817 68.6305 43.8306L69.9235 43.904L71.4867 44.1605L73.1103 44.8212C74.4142 45.8303 75.944 47.2394 76.5473 49.1129C75.2767 46.2765 72.0899 44.2322 68.6305 43.8306L67.3602 43.7584Z" fill="#6C63FF"/>
<path d="M67.3602 43.7584C71.287 43.7471 75.1223 45.9318 76.5473 49.1129C75.944 47.2394 74.4142 45.8303 73.1103 44.8212L71.4867 44.1605L69.9235 43.904L67.3602 43.7584Z" stroke="#6C63FF" stroke-width="0.5" stroke-linecap="round" stroke-linejoin="round"/>
<path d="M113.419 47.834C112.934 47.7744 112.447 47.7467 111.959 47.7496L110.473 47.6637L108.646 47.7668L106.678 48.36C105.011 49.4266 103.016 50.9558 101.992 53.1842C103.949 49.8593 107.946 47.7728 111.959 47.7496L113.419 47.834Z" fill="#6C63FF"/>
<path d="M113.419 47.834C108.948 47.284 104.187 49.4553 101.992 53.1842C103.016 50.9558 105.011 49.4266 106.678 48.36L108.646 47.7668L110.473 47.6637L113.419 47.834Z" stroke="#6C63FF" stroke-width="0.5" stroke-linecap="round" stroke-linejoin="round"/>
<path d="M110.307 44.0906C109.882 44.0755 109.457 44.0862 109.035 44.1214L107.741 44.1527L106.17 44.3583L104.526 44.9658C103.19 45.9319 101.615 47.2905 100.951 49.1434C102.313 46.3499 105.565 44.4103 109.035 44.1214L110.307 44.0906Z" fill="#6C63FF"/>
<path d="M110.307 44.0906C106.383 43.9515 102.479 46.0104 100.951 49.1434C101.615 47.2905 103.19 45.9319 104.526 44.9658L106.17 44.3583L107.741 44.1527L110.307 44.0906Z" stroke="#6C63FF" stroke-width="0.5" stroke-linecap="round" stroke-linejoin="round"/>
<mask id="path-36-inside-1" fill="white">
<path fill-rule="evenodd" clip-rule="evenodd" d="M88.3318 96.3127C89.3218 96.65 90.4447 96.5588 91.4277 96.0551L100.602 104.232C101.426 104.967 102.686 104.891 103.416 104.063C104.146 103.234 104.07 101.967 103.246 101.232L93.7472 92.7661C93.8891 91.6044 93.5249 90.4265 92.6508 89.594C91.1264 88.1422 88.6285 88.2906 87.0716 89.9254C86.2064 90.8338 85.8139 92.0101 85.8974 93.1252L76.496 101.466C75.6698 102.199 75.5904 103.467 76.3189 104.297C77.0473 105.127 78.3076 105.206 79.1339 104.473L88.3318 96.3127Z"/>
</mask>
<path fill-rule="evenodd" clip-rule="evenodd" d="M88.3318 96.3127C89.3218 96.65 90.4447 96.5588 91.4277 96.0551L100.602 104.232C101.426 104.967 102.686 104.891 103.416 104.063C104.146 103.234 104.07 101.967 103.246 101.232L93.7472 92.7661C93.8891 91.6044 93.5249 90.4265 92.6508 89.594C91.1264 88.1422 88.6285 88.2906 87.0716 89.9254C86.2064 90.8338 85.8139 92.0101 85.8974 93.1252L76.496 101.466C75.6698 102.199 75.5904 103.467 76.3189 104.297C77.0473 105.127 78.3076 105.206 79.1339 104.473L88.3318 96.3127Z" fill="#4FCC9B"/>
<path d="M91.4277 96.0551L92.093 95.3086L91.5815 94.8527L90.9716 95.1652L91.4277 96.0551ZM88.3318 96.3127L88.6544 95.3661L88.1035 95.1784L87.6681 95.5646L88.3318 96.3127ZM100.602 104.232L101.267 103.486L101.267 103.486L100.602 104.232ZM103.416 104.063L102.666 103.402L102.666 103.402L103.416 104.063ZM103.246 101.232L102.58 101.979L102.58 101.979L103.246 101.232ZM93.7472 92.7661L92.7546 92.6448L92.6911 93.1643L93.0818 93.5126L93.7472 92.7661ZM85.8974 93.1252L86.5611 93.8732L86.9316 93.5444L86.8946 93.0504L85.8974 93.1252ZM76.496 101.466L77.1597 102.214L77.1597 102.214L76.496 101.466ZM76.3189 104.297L75.5671 104.956L76.3189 104.297ZM79.1339 104.473L78.4702 103.725L78.4702 103.725L79.1339 104.473ZM90.9716 95.1652C90.2168 95.5519 89.3744 95.6115 88.6544 95.3661L88.0092 97.2592C89.2692 97.6886 90.6725 97.5657 91.8837 96.9451L90.9716 95.1652ZM101.267 103.486L92.093 95.3086L90.7623 96.8016L99.9364 104.979L101.267 103.486ZM102.666 103.402C102.303 103.814 101.678 103.852 101.267 103.486L99.9364 104.979C101.175 106.083 103.07 105.968 104.167 104.724L102.666 103.402ZM102.58 101.979C102.994 102.348 103.033 102.986 102.666 103.402L104.167 104.724C105.26 103.483 105.146 101.587 103.911 100.486L102.58 101.979ZM93.0818 93.5126L102.58 101.979L103.911 100.486L94.4126 92.0196L93.0818 93.5126ZM91.9611 90.3181C92.585 90.9123 92.8619 91.7665 92.7546 92.6448L94.7398 92.8873C94.9164 91.4423 94.4649 89.9408 93.3405 88.8699L91.9611 90.3181ZM87.7958 90.615C89.018 89.3316 90.8836 89.2919 91.9611 90.3181L93.3405 88.8699C91.3693 86.9926 88.2391 87.2495 86.3475 89.2357L87.7958 90.615ZM86.8946 93.0504C86.8323 92.2183 87.1248 91.3195 87.7958 90.615L86.3475 89.2357C85.288 90.3482 84.7955 91.8019 84.9002 93.1999L86.8946 93.0504ZM77.1597 102.214L86.5611 93.8732L85.2338 92.3771L75.8324 100.718L77.1597 102.214ZM77.0706 103.637C76.705 103.221 76.7449 102.582 77.1597 102.214L75.8324 100.718C74.5946 101.816 74.4759 103.712 75.5671 104.956L77.0706 103.637ZM78.4702 103.725C78.0587 104.09 77.4334 104.051 77.0706 103.637L75.5671 104.956C76.6612 106.203 78.5565 106.322 79.7975 105.221L78.4702 103.725ZM87.6681 95.5646L78.4702 103.725L79.7975 105.221L88.9954 97.0607L87.6681 95.5646Z" fill="black" mask="url(#path-36-inside-1)"/>
<defs>
<radialGradient id="paint0_radial" cx="0" cy="0" r="1" gradientUnits="userSpaceOnUse" gradientTransform="translate(88.4105 90.1631) rotate(90) scale(33.7371 33.2421)">
<stop offset="0.697917" stop-color="#63FFC2"/>
<stop offset="1" stop-color="#63FFC2" stop-opacity="0"/>
</radialGradient>
<radialGradient id="paint1_radial" cx="0" cy="0" r="1" gradientUnits="userSpaceOnUse" gradientTransform="translate(61.5 61) rotate(90) scale(11 11.5)">
<stop offset="0.932292" stop-color="#4FCC9B"/>
<stop offset="1" stop-color="#63FFC2"/>
</radialGradient>
<radialGradient id="paint2_radial" cx="0" cy="0" r="1" gradientUnits="userSpaceOnUse" gradientTransform="translate(116.5 61) rotate(90) scale(11 11.5)">
<stop offset="0.932292" stop-color="#4FCC9B"/>
<stop offset="1" stop-color="#63FFC2"/>
</radialGradient>
<linearGradient id="paint3_linear" x1="86" y1="54" x2="90.5" y2="48.5" gradientUnits="userSpaceOnUse">
<stop offset="0.765625" stop-color="#4FCC9B"/>
<stop offset="0.833333" stop-color="#63FFC2"/>
</linearGradient>
</defs>
</svg>
